<?xml version="1.0" encoding="utf-8"?>
<!-- Generator: Adobe Illustrator 16.0.0, SVG Export Plug-In . SVG Version: 6.00 Build 0)  -->
<!DOCTYPE svg PUBLIC "-//W3C//DTD SVG 1.1//EN" "http://www.w3.org/Graphics/SVG/1.1/DTD/svg11.dtd">
<svg version="1.1" id="Слой_1" xmlns="http://www.w3.org/2000/svg" xmlns:xlink="http://www.w3.org/1999/xlink" x="0px" y="0px"
	 width="512px" height="512px" viewBox="0 0 512 512" enable-background="new 0 0 512 512" xml:space="preserve">
<circle fill="#FFFFFF" cx="256" cy="255.75" r="244.25"/>
<linearGradient id="SVGID_1_" gradientUnits="userSpaceOnUse" x1="364.595" y1="-318.7017" x2="678.6049" y2="55.5207" gradientTransform="matrix(1 0 0 -1 -265.5996 124.1602)">
	<stop  offset="0" style="stop-color:#001D32"/>
	<stop  offset="1" style="stop-color:#40BFE8"/>
</linearGradient>
<path fill="url(#SVGID_1_)" d="M256,11.5c-134.896,0-244.25,109.354-244.25,244.25C11.75,390.646,121.104,500,256,500
	c134.896,0,244.25-109.354,244.25-244.25C500.25,120.854,390.896,11.5,256,11.5z M256,470.002
	c-118.328,0-214.252-95.924-214.252-214.252S137.672,41.498,256,41.498c118.327,0,214.252,95.924,214.252,214.252
	S374.327,470.002,256,470.002z"/>
<path fill="#FFFFFF" d="M303.356,434.641h-96.021c-11.777,0-21.359-9.582-21.359-21.359c0-6.808,3.201-12.881,8.176-16.795h-78.069
	c-19.995,0-36.262-16.973-36.262-37.836V152.14c0-20.865,16.267-37.84,36.262-37.84h215.455
	c33.552-29.017,72.925-32.488,100.092-32.488c3.478,0,7.128,0.065,10.849,0.194c11.057,0.381,20.022,9.345,20.407,20.406
	c1.15,33.134-1.577,75.238-32.016,110.623V358.65c0,20.863-16.268,37.836-36.263,37.836h-78.069
	c4.977,3.914,8.177,9.987,8.177,16.795C324.715,425.059,315.133,434.641,303.356,434.641z M198.31,353.77h189.842v-21.881H203.402
	v9.65C203.402,346.404,201.464,350.725,198.31,353.77z M122.539,353.77h38.116c-3.154-3.045-5.092-7.365-5.092-12.23v-9.65h-33.024
	V353.77z M380.212,289.172h7.94v-9.787C385.76,282.877,383.111,286.142,380.212,289.172z M320.456,289.172h4.481
	c-0.027-0.429-0.042-0.862-0.043-1.298v-1.158c-0.007-0.196-0.063-0.908-0.148-1.942c-0.891,1.021-1.82,2.015-2.787,2.982
	C321.49,288.226,320.989,288.697,320.456,289.172z M203.402,289.172h22.311c6.127-18.731,18.667-53.268,31.535-66.13
	c1.146-1.147,2.333-2.242,3.555-3.282c-0.097-0.009-0.19-0.019-0.282-0.027c-1.509-0.146-2.622-0.252-2.99-0.278l-0.798,0.002
	l-0.262,0c-7.382-0.02-14.098-3.788-17.964-10.079c-3.236-5.264-3.993-11.511-2.207-17.276
	c-10.495,28.605-26.203,71.472-32.897,90.082V289.172z M122.539,289.172h33.024v-7.231c-8.541-21.647-24.341-63.38-32.995-86.235
	c-0.009-0.026-0.019-0.051-0.029-0.077V289.172z M322.789,197.774l24.325,24.327c16.381-8.721,34.293-19.327,45.82-30.457
	c7.892-7.616,13.825-15.701,18.141-24.818c-7.172-3.284-13.74-7.848-19.452-13.562c-5.711-5.709-10.274-12.276-13.559-19.45
	c-9.116,4.315-17.201,10.248-24.816,18.138C342.11,163.488,331.506,181.399,322.789,197.774z M165.6,171.271
	c0.753,2.327,5.945,16.979,10.131,28.795c1.397,3.943,2.69,7.594,3.866,10.917c2.594-8.001,5.797-17.845,9.417-28.964
	c3.192-9.806,6.466-19.86,8.123-25.001h-74.599v4.235c2.909-2.218,6.489-3.458,10.271-3.458h15.474
	C154.566,157.795,162.823,161.333,165.6,171.271z M247.784,157.018c0.072,2.207-0.281,4.475-1.071,6.704
	c-0.08,0.224-1.119,3.054-2.849,7.767c-1.674,4.561-4.04,11.004-6.813,18.561c0.182-0.426,0.377-0.848,0.588-1.266l1.469-2.922
	c5.812-11.63,14.383-21.463,24.665-28.844H247.784z M144.698,169.535c0.048,0.112,0.104,0.25,0.176,0.431
	C144.819,169.821,144.76,169.678,144.698,169.535z"/>
<linearGradient id="SVGID_2_" gradientUnits="userSpaceOnUse" x1="94.821" y1="258.2266" x2="448.0803" y2="258.2266">
	<stop  offset="0" style="stop-color:#0C3B54"/>
	<stop  offset="1" style="stop-color:#40BFE8"/>
</linearGradient>
<path fill="url(#SVGID_2_)" d="M447.895,102.933c-0.112-3.23-2.706-5.824-5.937-5.936c-40.741-1.415-75.809,4.865-104.635,32.302
	h-221.24c-11.724,0-21.262,10.248-21.262,22.84V358.65c0,12.592,9.538,22.836,21.262,22.836h116.131l-8.479,25.436h-16.401
	c-3.511,0-6.359,2.848-6.359,6.359s2.848,6.359,6.359,6.359h96.021c3.512,0,6.359-2.848,6.359-6.359s-2.848-6.359-6.359-6.359h-16.4
	l-8.479-25.436h116.131c11.724,0,21.263-10.244,21.263-22.836V207.275C443.067,178.507,449.305,143.547,447.895,102.933z
	 M237.142,406.922l8.479-25.436h19.449l8.478,25.436H237.142z M403.153,358.646c0,5.58-3.832,10.123-8.545,10.123H116.083
	c-4.712,0-8.544-4.543-8.544-10.123v-41.758h40.193h7.911h14.92v24.65c0,1.139,0.456,1.822,1.592,1.822h14.656
	c0.909,0,1.59-0.684,1.59-1.822V282.33v-2.759c9.414-26.291,43.798-119.811,44.173-120.858c0.454-1.28,0.321-2.627-1.61-2.627
	h-15.851c-1.403,0-2.28,0.689-2.483,1.688c-0.2,1.003-23.77,72.867-25.482,78.854c-1.215,4.244-5.176,19.204-6.125,22.798
	l-8.197-22.38c-1.993-6.159-21.082-59.491-21.642-61.622c-0.309-1.171-0.847-2.627-2.9-2.627H132.81c-1.513,0-2.369,1.66-1.88,2.689
	c0.389,0.824,28.341,75.186,39.633,103.594v25.093h-14.92h-7.911h-40.193V152.14c0-5.58,3.833-10.122,8.544-10.122h209.57
	c-3.776,4.667-7.416,9.708-10.915,15.084h-5.115c-23.941,0-46.213,13.684-57.113,35.498l-1.477,2.937
	c-0.961,1.906-0.865,4.168,0.252,5.985c1.117,1.818,3.094,2.927,5.227,2.933c3.49,0.01-1.893-0.238,30.804,2.686
	c-2.58,5.156-5.146,10.311-7.545,15.014c-0.535,1.051-0.745,2.203-0.648,3.322c-4.081,2.04-7.894,4.795-11.271,8.173
	c-12.713,12.708-27.798,59.819-29.476,65.149c-0.581,1.844-0.248,3.824,0.838,5.373h-37.555v12.717h201.493V358.646z M280.901,264.1
	c2.402,2.403,6.297,2.403,8.698,0l13.052-13.052l6.93,6.933c-1.474,3.795-3.828,7.366-6.93,10.468
	c-7.051,7.054-31.772,16.642-48.684,22.499c5.893-16.88,15.525-41.54,22.585-48.598c3.102-3.102,6.672-5.456,10.469-6.929
	l6.929,6.929l-13.049,13.052C278.498,257.803,278.498,261.698,280.901,264.1z M292.754,223.752
	c1.805-3.576,3.629-7.239,5.808-11.592l34.168,34.169c-4.48,2.24-7.973,3.981-11.593,5.805L292.754,223.752z M293.275,195.335
	l-26.755-2.468c9.005-13.772,23.976-22.365,40.621-23.145C302.21,178.175,297.59,186.895,293.275,195.335z M403.153,304.172H253.317
	c15.064-5.027,47.776-16.764,58.034-27.021c3.407-3.408,6.18-7.256,8.227-11.376c1.171,0.068,2.219-0.175,3.156-0.653
	c4.674-2.385,9.647-4.86,14.904-7.49c2.443,31.842,2.249,26.668,2.257,30.205c0.012,4.594,4.858,7.525,8.918,5.482
	c1.532-1.021,17.446-6.836,28.665-25.024c6.228-10.095,9.478-21.702,9.478-33.566v-4.229c5.716-3.697,11.186-7.55,16.197-11.562
	V304.172z M349.504,251.642c8.263-4.225,16.792-8.741,25.082-13.556c-1.035,16.255-9.536,30.831-23.012,39.683L349.504,251.642z
	 M403.354,202.435c-14.896,14.383-37.799,27.167-59.064,38.055l-39.887-39.89c10.885-21.267,23.67-44.168,38.053-59.065
	c12.886-13.351,27.266-22.198,45.229-27.231c1.732,10.698,6.759,20.571,14.547,28.355c7.785,7.788,17.656,12.816,28.354,14.546
	C425.554,175.167,416.705,189.55,403.354,202.435z M433.299,145.174c-17.461-2.466-31.115-16.123-33.583-33.582
	c10.695-1.873,22.589-2.649,36.026-2.445C435.949,122.586,435.17,134.479,433.299,145.174z"/>
<path fill="#267D9E" d="M255.346,360.393c9.866,0,17.895-8.025,17.895-17.895c0-9.867-8.028-17.893-17.895-17.893
	c-9.867,0-17.895,8.025-17.895,17.893C237.451,352.367,245.479,360.393,255.346,360.393z M255.346,337.324
	c2.855,0,5.177,2.322,5.177,5.174c0,2.855-2.321,5.178-5.177,5.178s-5.177-2.322-5.177-5.178
	C250.169,339.646,252.49,337.324,255.346,337.324z"/>
<path fill="#37A9CF" d="M350.5,194.5c12.021,12.019,31.479,12.021,43.501,0c11.992-11.995,11.992-31.506,0-43.5
	c-12.021-12.021-31.479-12.024-43.501,0C338.506,162.992,338.506,182.505,350.5,194.5z M359.199,159.699
	c7.214-7.211,18.888-7.212,26.101,0c7.195,7.195,7.195,18.905,0,26.1c-7.212,7.213-18.887,7.215-26.101,0
	C352.005,178.604,352.005,166.895,359.199,159.699z"/>
</svg>
